<svg width="32" height="30" viewBox="0 0 32 30" fill="none" xmlns="http://www.w3.org/2000/svg">
<g clip-path="url(#clip0_760_10949)">
<path d="M5.84902 10.047C5.47302 10.495 4.87402 10.85 4.27602 10.798C4.19702 10.194 4.49502 9.54698 4.83902 9.14598C5.21402 8.68898 5.87002 8.36098 6.40202 8.33398C6.46502 8.96498 6.21902 9.58498 5.85002 10.047H5.84902ZM6.39602 10.917C5.52702 10.864 4.78102 11.416 4.36902 11.416C3.94802 11.416 3.31702 10.943 2.63002 10.959C1.73902 10.97 0.906024 11.479 0.453024 12.298C-0.489976 13.927 0.208024 16.339 1.11402 17.667C1.55702 18.323 2.08702 19.042 2.78602 19.022C3.44702 18.995 3.71302 18.585 4.51002 18.585C5.31702 18.585 5.54602 19.022 6.25002 19.006C6.97302 18.995 7.43102 18.35 7.87402 17.694C8.37902 16.949 8.58702 16.219 8.59802 16.183C8.58702 16.167 7.19702 15.631 7.18702 14.016C7.17602 12.661 8.28002 12.016 8.32702 11.979C7.70702 11.042 6.72802 10.943 6.39502 10.918L6.39602 10.917ZM11.412 9.08298V18.938H12.927V15.569H15.022C16.933 15.569 18.277 14.241 18.277 12.324C18.277 10.403 16.96 9.08398 15.074 9.08398L11.412 9.08298ZM12.927 10.375H14.672C15.984 10.375 16.735 11.083 16.735 12.328C16.735 13.573 15.984 14.287 14.662 14.287H12.927V10.375ZM21.036 19.011C21.989 19.011 22.869 18.527 23.271 17.755H23.303V18.938H24.703V14.031C24.703 12.615 23.579 11.694 21.844 11.694C20.24 11.694 19.052 12.626 19.011 13.902H20.37C20.485 13.293 21.037 12.897 21.803 12.897C22.73 12.897 23.246 13.334 23.246 14.137V14.678L21.361 14.793C19.6 14.902 18.652 15.626 18.652 16.892C18.652 18.168 19.632 19.012 21.037 19.012L21.036 19.011ZM21.448 17.844C20.64 17.844 20.125 17.453 20.125 16.855C20.125 16.235 20.62 15.87 21.562 15.812L23.245 15.708V16.265C23.245 17.188 22.469 17.844 21.442 17.844H21.448ZM26.573 21.62C28.046 21.62 28.74 21.047 29.344 19.323L32 11.792H30.464L28.683 17.609H28.651L26.87 11.792H25.287L27.85 18.964L27.714 19.401C27.479 20.136 27.105 20.421 26.438 20.421C26.318 20.421 26.089 20.406 25.995 20.396V21.579C26.083 21.604 26.459 21.615 26.568 21.615L26.573 21.62Z" fill="black"/>
</g>
<defs>
<clipPath id="clip0_760_10949">
<rect width="32" height="30" fill="white"/>
</clipPath>
</defs>
</svg>
