<svg width="30" height="22" viewBox="0 0 30 22" fill="none" xmlns="http://www.w3.org/2000/svg">
<path fill-rule="evenodd" clip-rule="evenodd" d="M4.20156 0.200317C3.24678 0.200317 2.33111 0.579602 1.65598 1.25473C0.980847 1.92986 0.601563 2.84554 0.601562 3.80032V11.0003C0.601563 11.9551 0.980847 12.8708 1.65598 13.5459C2.33111 14.221 3.24678 14.6003 4.20156 14.6003V3.80032H22.2016C22.2016 2.84554 21.8223 1.92986 21.1471 1.25473C20.472 0.579602 19.5563 0.200317 18.6016 0.200317H4.20156ZM7.80156 11.0003C7.80156 10.0455 8.18085 9.12986 8.85598 8.45473C9.53111 7.7796 10.4468 7.40032 11.4016 7.40032H25.8016C26.7563 7.40032 27.672 7.7796 28.3471 8.45473C29.0223 9.12986 29.4016 10.0455 29.4016 11.0003V18.2003C29.4016 19.1551 29.0223 20.0708 28.3471 20.7459C27.672 21.421 26.7563 21.8003 25.8016 21.8003H11.4016C10.4468 21.8003 9.53111 21.421 8.85598 20.7459C8.18085 20.0708 7.80156 19.1551 7.80156 18.2003V11.0003ZM18.6016 18.2003C19.5563 18.2003 20.472 17.821 21.1471 17.1459C21.8223 16.4708 22.2016 15.5551 22.2016 14.6003C22.2016 13.6455 21.8223 12.7299 21.1471 12.0547C20.472 11.3796 19.5563 11.0003 18.6016 11.0003C17.6468 11.0003 16.7311 11.3796 16.056 12.0547C15.3808 12.7299 15.0016 13.6455 15.0016 14.6003C15.0016 15.5551 15.3808 16.4708 16.056 17.1459C16.7311 17.821 17.6468 18.2003 18.6016 18.2003Z" fill="url(#paint0_radial_760_10959)"/>
<defs>
<radialGradient id="paint0_radial_760_10959" cx="0" cy="0" r="1" gradientUnits="userSpaceOnUse" gradientTransform="translate(15.0016 11.0003) rotate(90) scale(10.8 14.4)">
<stop stop-color="#F8CB46"/>
<stop offset="1" stop-color="#FFAB07"/>
</radialGradient>
</defs>
</svg>
