<svg width="35" height="30" viewBox="0 0 35 30" fill="none" xmlns="http://www.w3.org/2000/svg">
<g clip-path="url(#clip0_760_10967)">
<path d="M31.7891 5.80309C28.3369 3.79722 23.9225 4.9891 21.9275 8.46401L16.8988 17.2324C15.4437 19.7645 17.317 20.6492 19.4058 21.9099L24.2447 24.721C25.8834 25.6724 27.9764 25.1077 28.9215 23.4604L34.0913 14.4491C35.8279 11.4211 34.7974 7.55121 31.7891 5.80309Z" fill="#EA4335"/>
<path d="M26.0986 9.43225L21.2597 6.62106C18.5885 5.12849 17.0757 5.02969 15.9791 6.78427L8.8422 19.2252C6.84939 22.6978 8.03556 27.139 11.4857 29.1405C14.494 30.8886 18.3388 29.8514 20.0756 26.8233L27.349 14.1418C28.2984 12.4925 27.7373 10.3836 26.0986 9.43225Z" fill="#FBBC04"/>
<path d="M27.0315 3.03714L23.6327 1.06113C19.8733 -1.12282 15.0663 0.172135 12.8964 3.95613L6.42523 15.2372C5.46943 16.9017 6.03694 19.0321 7.69056 19.992L11.4968 22.204C13.3764 23.2972 15.7788 22.6485 16.8649 20.7565L24.2577 7.86892C25.7897 5.19961 29.18 4.28475 31.8319 5.82672L27.0315 3.037V3.03714Z" fill="#34A853"/>
<path d="M13.8132 7.18386L10.1392 5.05345C8.50061 4.10418 6.40758 4.66675 5.46244 6.31193L1.05422 13.9787C-1.11551 17.752 0.171015 22.5796 3.93037 24.7574L6.7275 26.3788L10.12 28.3458L11.5922 29.1984C8.97857 27.4374 8.14855 23.909 9.74652 21.13L10.8881 19.1456L15.0678 11.8761C16.0108 10.2353 15.4497 8.13299 13.8132 7.18372V7.18386Z" fill="#4285F4"/>
</g>
<defs>
<clipPath id="clip0_760_10967">
<rect width="35" height="30" fill="white"/>
</clipPath>
</defs>
</svg>
