<svg width="34" height="27" viewBox="0 0 34 27" fill="none" xmlns="http://www.w3.org/2000/svg">
<path d="M12.1406 5.72705H21.0454V22.0907H12.1406V5.72705Z" fill="#FF5F00"/>
<path d="M12.9984 13.9091C12.9984 10.5114 14.5757 7.49769 17 5.54765C15.2183 4.12949 12.9692 3.27271 10.5156 3.27271C4.7027 3.27271 0 8.02945 0 13.9091C0 19.7885 4.7027 24.5454 10.5155 24.5454C12.9691 24.5454 15.2182 23.6886 17 22.2704C14.5757 20.3499 12.9984 17.3067 12.9984 13.9091Z" fill="#EB001B"/>
<path d="M33.9999 13.9093C33.9999 19.7888 29.2972 24.5457 23.4844 24.5457C21.0309 24.5457 18.7818 23.6889 17 22.2706C19.4536 20.3207 21.0017 17.307 21.0017 13.9093C21.0017 10.5116 19.4243 7.49794 17 5.54789C18.7816 4.12974 21.0309 3.27295 23.4844 3.27295C29.2972 3.27295 34 8.05931 34 13.9093H33.9999Z" fill="#F79E1B"/>
</svg>
