<svg width="25" height="29" viewBox="0 0 25 29" fill="none" xmlns="http://www.w3.org/2000/svg">
<g clip-path="url(#clip0_760_10937)">
<path d="M21.2083 2.25706C19.8476 0.731969 17.3878 0.078125 14.241 0.078125H5.10821C4.79686 0.0781363 4.49574 0.187359 4.25896 0.386156C4.02219 0.584953 3.8653 0.860284 3.81651 1.16265L0.0137744 24.878C-0.0618115 25.3457 0.30645 25.7691 0.788481 25.7691H6.42676L7.84278 16.9375L7.79883 17.2141C7.89971 16.5898 8.44268 16.1293 9.08565 16.1293H11.7649C17.0284 16.1293 21.1498 14.0271 22.3537 7.94586C22.3895 7.76601 22.4204 7.59095 22.4472 7.41993C22.2952 7.3408 22.2952 7.3408 22.4472 7.41993C22.8057 5.17223 22.4447 3.64224 21.2083 2.25706Z" fill="#27346A"/>
<path d="M10.0002 6.61023C10.1543 6.53806 10.3229 6.50066 10.4937 6.50076H17.6536C18.5015 6.50076 19.2923 6.55502 20.0149 6.66938C20.2172 6.70109 20.4183 6.73894 20.6182 6.78289C20.9014 6.84434 21.1814 6.91956 21.457 7.00826C21.8123 7.12493 22.1432 7.26081 22.4473 7.41993C22.8057 5.17137 22.4447 3.64224 21.2083 2.25706C19.8468 0.731969 17.3878 0.078125 14.241 0.078125H5.10743C4.46436 0.078125 3.91729 0.538476 3.81651 1.16265L0.0137749 24.8772C-0.061811 25.3456 0.306451 25.7685 0.787701 25.7685H6.42676L9.36456 7.4495C9.39344 7.26944 9.46639 7.09898 9.57712 6.95278C9.68784 6.80658 9.83304 6.68903 10.0002 6.61023Z" fill="#27346A"/>
<path d="M22.3523 7.94586C21.1484 14.0263 17.0271 16.1293 11.7635 16.1293H9.08347C8.4405 16.1293 7.89743 16.5898 7.79753 17.214L6.03591 28.1952C5.97009 28.6044 6.29196 28.9753 6.71306 28.9753H11.466C11.7383 28.9752 12.0016 28.8796 12.2085 28.7057C12.4155 28.5318 12.5526 28.291 12.5952 28.0265L12.6415 27.7884L13.5373 22.2058L13.595 21.8973C13.6375 21.6328 13.7746 21.392 13.9816 21.2181C14.1886 21.0442 14.4518 20.9486 14.7241 20.9485H15.4354C20.0396 20.9485 23.6448 19.1092 24.6983 13.7897C25.1381 11.5667 24.9105 9.71073 23.7472 8.40707C23.3944 8.01221 22.9562 7.68611 22.4458 7.41992C22.4181 7.59181 22.3882 7.766 22.3523 7.94586Z" fill="#2790C3"/>
<path d="M21.1845 6.92628C20.9968 6.87238 20.8073 6.82466 20.6163 6.7832C20.4164 6.73997 20.2152 6.70238 20.0131 6.67047C19.2896 6.55533 18.4994 6.50098 17.6508 6.50098H10.4917C10.3208 6.5006 10.1521 6.53832 9.99824 6.61131C9.83089 6.68987 9.68553 6.80735 9.57475 6.95359C9.46398 7.09983 9.39112 7.27042 9.3625 7.45059L7.84082 16.9378L7.79688 17.2144C7.89697 16.5901 8.43994 16.1297 9.08301 16.1297H11.7631C17.0266 16.1297 21.1479 14.0274 22.3518 7.94618C22.3876 7.76632 22.4177 7.59203 22.4453 7.42024C22.1404 7.26199 21.8105 7.12525 21.4551 7.00934C21.3654 6.98011 21.2752 6.95242 21.1846 6.92628" fill="#1F264F"/>
</g>
<defs>
<clipPath id="clip0_760_10937">
<rect width="25" height="29" fill="white"/>
</clipPath>
</defs>
</svg>
