<svg width="34" height="15" viewBox="0 0 34 15" fill="none" xmlns="http://www.w3.org/2000/svg">
<g clip-path="url(#clip0_312_2244)">
<path d="M12.909 0.192105L8.4575 10.7129H5.55342L3.36281 2.31632C3.23 1.80039 3.11459 1.61053 2.71044 1.39237C2.04983 1.03684 0.958906 0.704342 0 0.4975L0.0646797 0.192105H4.74021C5.33521 0.192105 5.87098 0.584605 6.00724 1.26421L7.1647 7.35276L10.0223 0.192105H12.909ZM16.8349 0.192105L14.5634 10.7129H11.8158L14.0876 0.192105H16.835H16.8349ZM24.2878 7.27789C24.2992 4.50171 20.4131 4.34763 20.4385 3.10724C20.4478 2.73013 20.8104 2.32868 21.6041 2.22605C21.9972 2.17566 23.0833 2.13553 24.3136 2.6971L24.7949 0.464737C24.1339 0.227895 23.2832 0 22.2251 0C19.5091 0 17.5986 1.42921 17.5833 3.47737C17.5655 4.99237 18.948 5.83671 19.9876 6.34132C21.0585 6.85658 21.4176 7.18776 21.4127 7.64829C21.405 8.35421 20.5574 8.66671 19.7694 8.67829C18.3876 8.7 17.5866 8.30829 16.9477 8.01342L16.449 10.3197C17.0918 10.6116 18.2765 10.8651 19.5035 10.878C22.3909 10.878 24.2793 9.46526 24.2878 7.27803V7.27789ZM31.4597 10.7129H34L31.7807 0.192105H29.437C28.9084 0.192105 28.4641 0.496053 28.267 0.963289L24.1445 10.7129H27.0296L27.6019 9.14131H31.1267L31.4598 10.7129H31.4597ZM28.3931 6.98539L29.8396 3.03447L30.6707 6.98539H28.3929H28.3931ZM20.3513 13.6088H19.2348V14.6382H20.4835V14.9476H18.8587V12.0921H20.4195V12.4016H19.2348V13.3038H20.3511V13.6091L20.3513 13.6088ZM21.0603 11.9396H21.4365V14.9475H21.0603V11.9396ZM22.3855 13.99C22.394 14.4943 22.7149 14.7018 23.0953 14.7018C23.3649 14.7018 23.5316 14.6553 23.6686 14.5961L23.7369 14.863C23.6044 14.9222 23.3735 14.9942 23.044 14.9942C22.4071 14.9942 22.0266 14.5749 22.0266 13.9562C22.0266 13.3378 22.394 12.8546 22.9971 12.8546C23.6771 12.8546 23.8525 13.4395 23.8525 13.8164C23.8525 13.8926 23.8481 13.9476 23.8394 13.9901H22.3855V13.99ZM23.4888 13.7232C23.4932 13.4903 23.3905 13.1216 22.9671 13.1216C22.5822 13.1216 22.4197 13.4647 22.3897 13.7232H23.4888ZM25.8999 14.8755C25.8016 14.9222 25.5834 14.9943 25.3056 14.9943C24.6812 14.9943 24.2749 14.5749 24.2749 13.9478C24.2749 13.3164 24.711 12.8547 25.3867 12.8547C25.609 12.8547 25.8057 12.9096 25.9084 12.9649L25.8231 13.2487C25.733 13.2021 25.5919 13.1511 25.3867 13.1511C24.9119 13.1511 24.6556 13.5028 24.6556 13.9267C24.6556 14.4011 24.9634 14.6934 25.374 14.6934C25.5878 14.6934 25.7288 14.6426 25.8358 14.5961L25.8999 14.8755ZM26.9555 12.4055V12.897H27.4942V13.1807H26.9555V14.2866C26.9555 14.5411 27.0283 14.6849 27.2377 14.6849C27.3403 14.6849 27.4003 14.6766 27.4559 14.6593L27.4731 14.9436C27.4003 14.9688 27.2849 14.9942 27.1394 14.9942C26.964 14.9942 26.8228 14.9349 26.7332 14.8376C26.6305 14.723 26.5877 14.5411 26.5877 14.2995V13.1807H26.2669V12.897H26.5877V12.5158L26.9556 12.4057L26.9555 12.4055ZM28.0197 13.5368C28.0197 13.2953 28.0152 13.0878 28.0026 12.897H28.332L28.3492 13.3036H28.3617C28.456 13.0284 28.6867 12.8546 28.9389 12.8546C28.9776 12.8546 29.0076 12.8589 29.0418 12.863V13.2149C29.0033 13.2062 28.9649 13.2062 28.9133 13.2062C28.6485 13.2062 28.46 13.4011 28.4089 13.6809C28.4 13.7384 28.3957 13.7965 28.396 13.8546V14.9478H28.0197V13.5368ZM31.3548 13.9053C31.3548 14.6637 30.8201 14.9942 30.3241 14.9942C29.7681 14.9942 29.332 14.5874 29.332 13.9393C29.332 13.2571 29.7896 12.8547 30.3584 12.8547C30.9527 12.8547 31.3548 13.2824 31.3548 13.9054V13.9053ZM29.7168 13.9266C29.7168 14.3757 29.9734 14.7147 30.3411 14.7147C30.7005 14.7147 30.9698 14.3797 30.9698 13.918C30.9698 13.5707 30.7944 13.1341 30.3496 13.1341C29.9094 13.1341 29.7168 13.5411 29.7168 13.9266ZM31.9314 13.452C31.9314 13.2361 31.9269 13.0664 31.9142 12.8971H32.2478L32.2692 13.2361H32.2777C32.3804 13.0453 32.6198 12.8547 32.9619 12.8547C33.2483 12.8547 33.6932 13.0242 33.6932 13.7272V14.9476H33.3169V13.7655C33.3169 13.4353 33.1929 13.1596 32.838 13.1596C32.5942 13.1596 32.4016 13.3334 32.3335 13.5409C32.3162 13.5876 32.3077 13.6511 32.3077 13.7147V14.9476H31.9314V13.452Z" fill="#1A1F71"/>
</g>
<defs>
<clipPath id="clip0_312_2244">
<rect width="34" height="15" fill="white"/>
</clipPath>
</defs>
</svg>
