<svg width="28" height="28" viewBox="0 0 28 28" fill="none" xmlns="http://www.w3.org/2000/svg">
<path d="M19.833 11.6667H22.1663C24.4997 11.6667 25.6663 10.5 25.6663 8.16666V5.83333C25.6663 3.49999 24.4997 2.33333 22.1663 2.33333H19.833C17.4997 2.33333 16.333 3.49999 16.333 5.83333V8.16666C16.333 10.5 17.4997 11.6667 19.833 11.6667Z" stroke="#9BA3AA" stroke-width="1.2" stroke-miterlimit="10" stroke-linecap="round" stroke-linejoin="round"/>
<path d="M5.83301 25.6667H8.16634C10.4997 25.6667 11.6663 24.5 11.6663 22.1667V19.8333C11.6663 17.5 10.4997 16.3333 8.16634 16.3333H5.83301C3.49967 16.3333 2.33301 17.5 2.33301 19.8333V22.1667C2.33301 24.5 3.49967 25.6667 5.83301 25.6667Z" stroke="#9BA3AA" stroke-width="1.2" stroke-miterlimit="10" stroke-linecap="round" stroke-linejoin="round"/>
<path d="M6.99967 11.6667C9.577 11.6667 11.6663 9.57732 11.6663 7C11.6663 4.42267 9.577 2.33333 6.99967 2.33333C4.42235 2.33333 2.33301 4.42267 2.33301 7C2.33301 9.57732 4.42235 11.6667 6.99967 11.6667Z" stroke="#9BA3AA" stroke-width="1.2" stroke-miterlimit="10" stroke-linecap="round" stroke-linejoin="round"/>
<path d="M20.9997 25.6667C23.577 25.6667 25.6663 23.5773 25.6663 21C25.6663 18.4227 23.577 16.3333 20.9997 16.3333C18.4223 16.3333 16.333 18.4227 16.333 21C16.333 23.5773 18.4223 25.6667 20.9997 25.6667Z" stroke="#9BA3AA" stroke-width="1.2" stroke-miterlimit="10" stroke-linecap="round" stroke-linejoin="round"/>
</svg>
