<svg width="24" height="24" viewBox="0 0 24 24" fill="none" xmlns="http://www.w3.org/2000/svg">
<path d="M21.5299 10.87L20.0099 9.35001C19.7499 9.09001 19.5399 8.58001 19.5399 8.22001V6.06C19.5399 5.18 18.8199 4.46 17.9399 4.46H15.7899C15.4299 4.46 14.9199 4.25 14.6599 3.99L13.1399 2.47C12.5199 1.85 11.4999 1.85 10.8799 2.47L9.33988 3.99C9.08988 4.25 8.57988 4.46 8.20988 4.46H6.05988C5.17988 4.46 4.45988 5.18 4.45988 6.06V8.21C4.45988 8.57 4.24988 9.08 3.98988 9.34L2.46988 10.86C1.84988 11.48 1.84988 12.5 2.46988 13.12L3.98988 14.64C4.24988 14.9 4.45988 15.41 4.45988 15.77V17.92C4.45988 18.8 5.17988 19.52 6.05988 19.52H8.20988C8.56988 19.52 9.07988 19.73 9.33988 19.99L10.8599 21.51C11.4799 22.13 12.4999 22.13 13.1199 21.51L14.6399 19.99C14.8999 19.73 15.4099 19.52 15.7699 19.52H17.9199C18.7999 19.52 19.5199 18.8 19.5199 17.92V15.77C19.5199 15.41 19.7299 14.9 19.9899 14.64L21.5099 13.12C22.1599 12.51 22.1599 11.49 21.5299 10.87ZM7.99988 9C7.99988 8.45 8.44988 8 8.99988 8C9.54988 8 9.99988 8.45 9.99988 9C9.99988 9.55 9.55988 10 8.99988 10C8.44988 10 7.99988 9.55 7.99988 9ZM9.52988 15.53C9.37988 15.68 9.18988 15.75 8.99988 15.75C8.80988 15.75 8.61988 15.68 8.46988 15.53C8.17988 15.24 8.17988 14.76 8.46988 14.47L14.4699 8.47001C14.7599 8.18001 15.2399 8.18001 15.5299 8.47001C15.8199 8.76001 15.8199 9.24 15.5299 9.53L9.52988 15.53ZM14.9999 16C14.4399 16 13.9899 15.55 13.9899 15C13.9899 14.45 14.4399 14 14.9899 14C15.5399 14 15.9899 14.45 15.9899 15C15.9899 15.55 15.5499 16 14.9999 16Z" fill="#122636"/>
</svg>
