<svg width="28" height="28" viewBox="0 0 28 28" fill="none" xmlns="http://www.w3.org/2000/svg">
<path d="M13.5192 6.57777L13.9997 7.21992L14.4801 6.57777C15.5505 5.14701 17.2659 4.21667 19.1797 4.21667C22.4272 4.21667 25.0663 6.8619 25.0663 10.1383C25.0663 11.4614 24.8553 12.6825 24.4888 13.8153L24.4876 13.8192C23.6089 16.5999 21.808 18.8416 19.8634 20.5129C17.9162 22.1864 15.8593 23.2579 14.5297 23.7103L14.5297 23.7103L14.5233 23.7125C14.4092 23.7528 14.2193 23.7833 13.9997 23.7833C13.7801 23.7833 13.5902 23.7528 13.476 23.7125L13.476 23.7125L13.4696 23.7103C12.14 23.2579 10.0832 22.1864 8.13596 20.5129C6.19138 18.8416 4.3905 16.5999 3.51179 13.8192L3.5118 13.8192L3.51054 13.8153C3.14404 12.6825 2.93301 11.4614 2.93301 10.1383C2.93301 6.8619 5.57218 4.21667 8.81967 4.21667C10.7335 4.21667 12.4488 5.14701 13.5192 6.57777Z" stroke="#9BA3AA" stroke-width="1.2"/>
</svg>
