<svg width="14" height="12" viewBox="0 0 14 12" fill="none" xmlns="http://www.w3.org/2000/svg">
<path d="M6.59981 1.85286L7.00016 2.38799L7.40052 1.85286C7.98392 1.07306 8.9184 0.566666 9.96016 0.566666C11.7284 0.566666 13.1668 2.00713 13.1668 3.79333C13.1668 4.53229 13.049 5.21375 12.8444 5.84608L12.8434 5.84934C12.3525 7.40271 11.3445 8.66047 10.2484 9.60247C9.15016 10.5464 7.99223 11.1483 7.25244 11.4L7.25243 11.4L7.24709 11.4018C7.20391 11.4171 7.11442 11.4333 7.00016 11.4333C6.88591 11.4333 6.79641 11.4171 6.75324 11.4018L6.75325 11.4018L6.74789 11.4C6.00809 11.1483 4.85016 10.5464 3.75189 9.60247C2.65582 8.66047 1.64779 7.40271 1.15693 5.84934L1.15694 5.84934L1.15588 5.84609C0.951304 5.21375 0.833496 4.53229 0.833496 3.79333C0.833496 2.00714 2.27197 0.566666 4.04016 0.566666C5.08192 0.566666 6.01641 1.07306 6.59981 1.85286Z" stroke="#E82828"/>
</svg>
