<svg width="20" height="20" viewBox="0 0 20 20" fill="none" xmlns="http://www.w3.org/2000/svg">
<g clip-path="url(#clip0_265_2505)">
<path d="M17.1834 7.04168C16.3084 3.19168 12.9501 1.45834 10.0001 1.45834C10.0001 1.45834 10.0001 1.45834 9.99175 1.45834C7.05008 1.45834 3.68341 3.18334 2.80841 7.03334C1.83341 11.3333 4.46675 14.975 6.85008 17.2667C7.73341 18.1167 8.86675 18.5417 10.0001 18.5417C11.1334 18.5417 12.2667 18.1167 13.1417 17.2667C15.5251 14.975 18.1584 11.3417 17.1834 7.04168ZM10.0001 11.2167C8.55008 11.2167 7.37508 10.0417 7.37508 8.59168C7.37508 7.14168 8.55008 5.96668 10.0001 5.96668C11.4501 5.96668 12.6251 7.14168 12.6251 8.59168C12.6251 10.0417 11.4501 11.2167 10.0001 11.2167Z" fill="white"/>
</g>
<defs>
<clipPath id="clip0_265_2505">
<rect width="20" height="20" fill="white"/>
</clipPath>
</defs>
</svg>
