<svg width="20" height="15" viewBox="0 0 20 15" fill="none" xmlns="http://www.w3.org/2000/svg">
<mask id="path-1-outside-1_72_1318" maskUnits="userSpaceOnUse" x="0" y="0" width="20" height="15" fill="black">
<rect fill="white" width="20" height="15"/>
<path d="M16.9152 5.46089C16.8583 5.46089 16.8023 5.46502 16.7464 5.46944L16.7465 5.11999C16.7465 3.60031 15.5148 2.36402 14.0007 2.36402H13.3824C13.1552 1.57728 12.4324 1 11.5763 1C10.9164 1 10.336 1.34332 10.0001 1.86063C9.66413 1.34332 9.08359 1 8.42388 1C7.56782 1 6.84494 1.57728 6.6178 2.36402H5.99952C4.48542 2.36402 3.25366 3.60031 3.25366 5.11999V5.46944C3.19748 5.46502 3.14158 5.46089 3.08469 5.46089C1.93509 5.46089 1 6.39957 1 7.55326C1 8.39654 1.51258 9.15482 2.2712 9.47776V9.95195C2.2712 10.4424 2.46925 10.8871 2.78919 11.21C2.4843 11.352 2.27105 11.66 2.27105 12.019C2.27105 12.5115 2.67028 12.9121 3.16089 12.9121H4.10165V13.6938C4.10165 13.863 4.23827 14 4.40668 14C4.57508 14.0001 4.71171 13.8632 4.71171 13.6938V12.912H15.3389V13.6938C15.3389 13.863 15.4755 14 15.644 14C15.8124 14 15.949 13.863 15.949 13.6938V12.912H16.8388C17.3294 12.912 17.7287 12.5114 17.7287 12.0188C17.7287 11.66 17.5156 11.3518 17.2107 11.21C17.5306 10.8869 17.7288 10.4423 17.7288 9.95191V9.47772C18.4874 9.15477 19 8.39665 19 7.55322C19 6.39954 18.0648 5.46089 16.9152 5.46089ZM13.4576 2.9765H14.0007C15.1784 2.9765 16.1363 3.93797 16.1363 5.12001V5.61385C15.3718 5.92442 14.8305 6.676 14.8305 7.55315C14.8305 7.58761 14.8348 7.62108 14.8366 7.65525H13.4576L13.4576 2.9765ZM10.305 2.88836C10.305 2.18491 10.8753 1.61248 11.5762 1.61248C12.2772 1.61248 12.8474 2.18491 12.8474 2.88836V7.6554H10.305V2.88836ZM7.15252 2.88836C7.15252 2.18491 7.72285 1.61248 8.42371 1.61248C9.12458 1.61248 9.69491 2.18491 9.69491 2.88836V7.6554H7.15252V2.88836ZM9.99993 8.26783H15.9491C16.5941 8.26783 17.1186 8.79454 17.1186 9.4416V9.95195C17.1186 10.5991 16.5941 11.1257 15.9491 11.1257L9.99993 11.1259H4.05072C3.40575 11.1259 2.88126 10.5991 2.88126 9.95209V9.44174C2.88126 8.79454 3.40575 8.26797 4.05072 8.26797L9.99993 8.26783ZM3.86367 5.11998C3.86367 3.93793 4.82161 2.97646 5.99932 2.97646H6.54241V7.65529H5.16338C5.16494 7.62126 5.16948 7.58765 5.16948 7.55319C5.16948 6.67605 4.62824 5.92415 3.86367 5.6139L3.86367 5.11998ZM1.61013 7.55341C1.61013 6.73717 2.27155 6.07331 3.08479 6.07331C3.89803 6.07331 4.55945 6.73717 4.55945 7.55341C4.55945 7.58815 4.55577 7.62161 4.5535 7.65551L4.05083 7.65536C3.2779 7.65536 2.62059 8.15332 2.37528 8.8455C1.91445 8.5899 1.61013 8.09821 1.61013 7.55341ZM16.8391 12.2997h4.16099C3.00677 12.2997 2.88136 12.1737 2.88136 12.019C2.88136 11.8642 3.00692 11.7383 3.16099 11.7383H4.05083L10 11.7382H16.8391C16.9933 11.7382 17.1187 11.8642 17.1187 12.0189C17.1187 12.1737 16.9932 12.2997 16.8391 12.2997ZM17.6248 8.84554C17.3795 8.15336 16.7222 7.6554 15.9492 7.6554H15.4467C15.4443 7.62151 15.4408 7.58805 15.4408 7.5533C15.4408 6.73707 16.1022 6.07321 16.9154 6.07321C17.7287 6.07321 18.3901 6.73707 18.3901 7.5533C18.3899 8.09825 18.0856 8.58997 17.6248 8.84554Z"/>
</mask>
<path d="M16.9152 5.46089C16.8583 5.46089 16.8023 5.46502 16.7464 5.46944L16.7465 5.11999C16.7465 3.60031 15.5148 2.36402 14.0007 2.36402H13.3824C13.1552 1.57728 12.4324 1 11.5763 1C10.9164 1 10.336 1.34332 10.0001 1.86063C9.66413 1.34332 9.08359 1 8.42388 1C7.56782 1 6.84494 1.57728 6.6178 2.36402H5.99952C4.48542 2.36402 3.25366 3.60031 3.25366 5.11999V5.46944C3.19748 5.46502 3.14158 5.46089 3.08469 5.46089C1.93509 5.46089 1 6.39957 1 7.55326C1 8.39654 1.51258 9.15482 2.2712 9.47776V9.95195C2.2712 10.4424 2.46925 10.8871 2.78919 11.21C2.4843 11.352 2.27105 11.66 2.27105 12.019C2.27105 12.5115 2.67028 12.9121 3.16089 12.9121H4.10165V13.6938C4.10165 13.863 4.23827 14 4.40668 14C4.57508 14.0001 4.71171 13.8632 4.71171 13.6938V12.912H15.3389V13.6938C15.3389 13.863 15.4755 14 15.644 14C15.8124 14 15.949 13.863 15.949 13.6938V12.912H16.8388C17.3294 12.912 17.7287 12.5114 17.7287 12.0188C17.7287 11.66 17.5156 11.3518 17.2107 11.21C17.5306 10.8869 17.7288 10.4423 17.7288 9.95191V9.47772C18.4874 9.15477 19 8.39665 19 7.55322C19 6.39954 18.0648 5.46089 16.9152 5.46089ZM13.4576 2.9765H14.0007C15.1784 2.9765 16.1363 3.93797 16.1363 5.12001V5.61385C15.3718 5.92442 14.8305 6.676 14.8305 7.55315C14.8305 7.58761 14.8348 7.62108 14.8366 7.65525H13.4576L13.4576 2.9765ZM10.305 2.88836C10.305 2.18491 10.8753 1.61248 11.5762 1.61248C12.2772 1.61248 12.8474 2.18491 12.8474 2.88836V7.6554H10.305V2.88836ZM7.15252 2.88836C7.15252 2.18491 7.72285 1.61248 8.42371 1.61248C9.12458 1.61248 9.69491 2.18491 9.69491 2.88836V7.6554H7.15252V2.88836ZM9.99993 8.26783H15.9491C16.5941 8.26783 17.1186 8.79454 17.1186 9.4416V9.95195C17.1186 10.5991 16.5941 11.1257 15.9491 11.1257L9.99993 11.1259H4.05072C3.40575 11.1259 2.88126 10.5991 2.88126 9.95209V9.44174C2.88126 8.79454 3.40575 8.26797 4.05072 8.26797L9.99993 8.26783ZM3.86367 5.11998C3.86367 3.93793 4.82161 2.97646 5.99932 2.97646H6.54241V7.65529H5.16338C5.16494 7.62126 5.16948 7.58765 5.16948 7.55319C5.16948 6.67605 4.62824 5.92415 3.86367 5.6139L3.86367 5.11998ZM1.61013 7.55341C1.61013 6.73717 2.27155 6.07331 3.08479 6.07331C3.89803 6.07331 4.55945 6.73717 4.55945 7.55341C4.55945 7.58815 4.55577 7.62161 4.5535 7.65551L4.05083 7.65536C3.2779 7.65536 2.62059 8.15332 2.37528 8.8455C1.91445 8.5899 1.61013 8.09821 1.61013 7.55341ZM16.8391 12.2997h4.16099C3.00677 12.2997 2.88136 12.1737 2.88136 12.019C2.88136 11.8642 3.00692 11.7383 3.16099 11.7383H4.05083L10 11.7382H16.8391C16.9933 11.7382 17.1187 11.8642 17.1187 12.0189C17.1187 12.1737 16.9932 12.2997 16.8391 12.2997ZM17.6248 8.84554C17.3795 8.15336 16.7222 7.6554 15.9492 7.6554H15.4467C15.4443 7.62151 15.4408 7.58805 15.4408 7.5533C15.4408 6.73707 16.1022 6.07321 16.9154 6.07321C17.7287 6.07321 18.3901 6.73707 18.3901 7.5533C18.3899 8.09825 18.0856 8.58997 17.6248 8.84554Z" fill="white"/>
<path d="M16.7464 5.46944L16.7264 5.46943L16.7264 5.49108L16.748 5.48937L16.7464 5.46944ZM16.7465 5.11999L16.7665 5.12V5.11999H16.7465ZM13.3824 2.36402L13.3632 2.36957L13.3673 2.38402H13.3824V2.36402ZM10.0001 1.86063L9.98332 1.87153L10.0001 1.89736L10.0169 1.87153L10.0001 1.86063ZM6.6178 2.36402V2.38402H6.63284L6.63701 2.36957L6.6178 2.36402ZM3.25366 5.46944L3.2521 5.48937L3.27366 5.49107V5.46944h4.25366ZM2.2712 9.47776H2.2912V9.46454L2.27903 9.45936L2.2712 9.47776ZM2.78919 11.21L2.79764 11.2282L2.82341 11.2162L2.8034 11.196L2.78919 11.21ZM4.10165 12.9121H4.12165V12.8921H4.10165V12.9121ZM4.40668 14L4.4067 13.98H4.40668V14ZM4.71171 12.912V12.892H4.69171V12.912H4.71171ZM15.3389 12.912H15.3589V12.892H15.3389V12.912ZM15.949 12.912V12.892H15.929V12.912H15.949ZM17.2107 11.21L17.1964 11.1959L17.1764 11.2161L17.2022 11.2281L17.2107 11.21ZM17.7288 9.47772L17.721 9.45932L17.7088 9.4645V9.47772H17.7288ZM13.4576 2.9765V2.9565H13.4376V2.9765H13.4576ZM16.1363 5.61385L16.1439 5.63238L16.1563 5.62732V5.61385H16.1363ZM14.8366 7.65525V7.67525H14.8577L14.8566 7.65417L14.8366 7.65525ZM13.4576 7.65525H13.4376V7.67525H13.4576V7.65525ZM12.8474 7.6554V7.6754H12.8674V7.6554H12.8474ZM10.305 7.6554H10.285V7.6754H10.305V7.6554ZM9.69491 7.6554V7.6754H9.71491V7.6554H9.69491ZM7.15252 7.6554H7.13252V7.6754H7.15252V7.6554ZM9.99993 8.26783V8.24783V8.26783ZM15.9491 11.1257V11.1057V11.1257ZM9.99993 11.1259V11.1459H9.99993L9.99993 11.1259ZM4.05072 8.26797V8.28797H4.05072L4.05072 8.26797ZM3.86367 5.11998h4.88367h4.86367ZM6.54241 2.97646H6.56241V2.95646H6.54241V2.97646ZM6.54241 7.65529V7.67529H6.56241V7.65529H6.54241ZM5.16338 7.65529L5.1434 7.65438L5.14244 7.67529H5.16338V7.65529ZM3.86367 5.6139h4.84367V5.62736L3.85615 5.63243L3.86367 5.6139ZM4.5535 7.65551L4.55349 7.67551L4.5722 7.67551L4.57345 7.65684L4.5535 7.65551ZM4.05083 7.65536L4.05083 7.63536H4.05083V7.65536ZM2.37528 8.8455L2.36558 8.86299L2.38624 8.87445L2.39413 8.85218L2.37528 8.8455ZM4.05083 11.7383V11.7583H4.05083L4.05083 11.7383ZM10 11.7382V11.7182H10L10 11.7382ZM17.6248 8.84554L17.6059 8.85222L17.6138 8.87449L17.6345 8.86303L17.6248 8.84554ZM15.4467 7.6554L15.4268 7.65682L15.4281 7.6754H15.4467V7.6554ZM18.3901 7.5533L18.4101 7.55331V7.5533H18.3901ZM16.9152 5.44089C16.8574 5.44089 16.8007 5.44509 16.7448 5.4495L16.748 5.48937C16.8039 5.48496 16.8592 5.48089 16.9152 5.48089V5.44089ZM16.7664 5.46944L16.7665 5.12L16.7265 5.11999L16.7264 5.46943L16.7664 5.46944ZM16.7665 5.11999C16.7665 3.58934 15.5259 2.34402 14.0007 2.34402V2.38402C15.5036 2.38402 16.7265 3.61129 16.7265 5.11999H16.7665ZM14.0007 2.34402H13.3824V2.38402H14.0007V2.34402ZM13.4016 2.35848C13.1721 1.56349 12.4416 0.98 11.5763 0.98V1.02C12.4232 1.02 13.1384 1.59107 13.3632 2.36957L13.4016 2.35848ZM11.5763 0.98C10.9093 0.98 10.3228 1.32705 9.98332 1.84974L10.0169 1.87153C10.3493 1.35959 10.9236 1.02 11.5763 1.02V0.98ZM10.0169 1.84974C9.67741 1.32705 9.09072 0.98 8.42388 0.98V1.02C9.07647 1.02 9.65085 1.35959 9.98332 1.87153L10.0169 1.84974ZM8.42388 0.98C7.55858 0.98 6.82811 1.56349 6.59858 2.35848L6.63701 2.36957C6.86178 1.59107 7.57705 1.02 8.42388 1.02V0.98ZM6.6178 2.34402H5.99952V2.38402H6.6178V2.34402ZM5.99952 2.34402C4.4743 2.34402 3.23366 3.58934 3.23366 5.11999h4.27366C3.27366 3.61129 4.49653 2.38402 5.99952 2.38402V2.34402ZM3.23366 5.11999V5.46944h4.27366V5.11999h4.23366ZM3.25523 5.4495C3.19908 5.44509 3.14246 5.44089 3.08469 5.44089V5.48089C3.1407 5.48089 3.19588 5.48496 3.2521 5.48937L3.25523 5.4495ZM3.08469 5.44089C1.92398 5.44089 0.98 6.3886 0.98 7.55326H1.02C1.02 6.41055 1.94621 5.48089 3.08469 5.48089V5.44089ZM0.98 7.55326C0.98 8.40464 1.49745 9.17011 2.26336 9.49616L2.27903 9.45936C1.52772 9.13952 1.02 8.38844 1.02 7.55326H0.98ZM2.2512 9.47776V9.95195H2.2912V9.47776H2.2512ZM2.2512 9.95195C2.2512 10.4479 2.45149 10.8975 2.77498 11.2241L2.8034 11.196C2.48701 10.8766 2.2912 10.4369 2.2912 9.95195H2.2512ZM2.78075 11.1919C2.46917 11.337 2.25105 11.6519 2.25105 12.019H2.29105C2.29105 11.6682 2.49944 11.367 2.79764 11.2282L2.78075 11.1919ZM2.25105 12.019C2.25105 12.5225 2.65917 12.9321 3.16089 12.9321V12.8921C2.68139 12.8921 2.29105 12.5006 2.29105 12.019H2.25105ZM3.16089 12.9321H4.10165V12.8921h4.16089V12.9321ZM4.08165 12.9121V13.6938H4.12165V12.9121H4.08165ZM4.08165 13.6938C4.08165 13.874 4.22717 14.02 4.40668 14.02V13.98C4.24938 13.98 4.12165 13.852 4.12165 13.6938H4.08165ZM4.40666 14.02C4.5862 14.0202 4.73171 13.8741 4.73171 13.6938H4.69171C4.69171 13.8522 4.56397 13.9801 4.4067 13.98L4.40666 14.02ZM4.73171 13.6938V12.912H4.69171V13.6938H4.73171ZM4.71171 12.932H15.3389V12.892H4.71171V12.932ZM15.3189 12.912V13.6938H15.3589V12.912H15.3189ZM15.3189 13.6938C15.3189 13.874 15.4644 14.02 15.644 14.02V13.98C15.4867 13.98 15.3589 13.852 15.3589 13.6938H15.3189ZM15.644 14.02C15.8235 14.02 15.969 13.874 15.969 13.6938H15.929C15.929 13.852 15.8012 13.98 15.644 13.98V14.02ZM15.969 13.6938V12.912H15.929V13.6938H15.969ZM15.949 12.932H16.8388V12.892H15.949V12.932ZM16.8388 12.932C17.3405 12.932 17.7487 12.5224 17.7487 12.0188H17.7087C17.7087 12.5004 17.3183 12.892 16.8388 12.892V12.932ZM17.7487 12.0188C17.7487 11.6518 17.5307 11.3368 17.2191 11.1919L17.2022 11.2281C17.5004 11.3669 17.7087 11.6681 17.7087 12.0188H17.7487ZM17.2249 11.2241C17.5483 10.8974 17.7488 10.4478 17.7488 9.95191H17.7088C17.7088 10.4368 17.5128 10.8764 17.1964 11.1959L17.2249 11.2241ZM17.7488 9.95191V9.47772H17.7088V9.95191H17.7488ZM17.7366 9.49613C18.5026 9.17006 19.02 8.40476 19.02 7.55322H18.98C18.98 8.38855 18.4723 9.13947 17.721 9.45932L17.7366 9.49613ZM19.02 7.55322C19.02 6.38856 18.0759 5.44089 16.9152 5.44089V5.48089C18.0537 5.48089 18.98 6.41052 18.98 7.55322H19.02ZM13.4576 2.9965H14.0007V2.9565H13.4576V2.9965ZM14.0007 2.9965C15.1673 2.9965 16.1163 3.94894 16.1163 5.12001H16.1563C16.1563 3.92699 15.1895 2.9565 14.0007 2.9565V2.9965ZM16.1163 5.12001V5.61385H16.1563V5.12001H16.1163ZM16.1288 5.59532C15.357 5.90884 14.8105 6.66757 14.8105 7.55315H14.8505C14.8505 6.68443 15.3866 5.94 16.1439 5.63238L16.1288 5.59532ZM14.8105 7.55315C14.8105 7.58808 14.8149 7.62431 14.8166 7.65633L14.8566 7.65417C14.8546 7.61784 14.8505 7.58714 14.8505 7.55315H14.8105ZM14.8366 7.63525H13.4576V7.67525H14.8366V7.63525ZM13.4776 7.65525L13.4776 2.9765H13.4376L13.4376 7.65525H13.4776ZM10.325 2.88836C10.325 2.19589 10.8864 1.63248 11.5762 1.63248V1.59248C10.8642 1.59248 10.285 2.17393 10.285 2.88836H10.325ZM11.5762 1.63248C12.2661 1.63248 12.8274 2.19588 12.8274 2.88836H12.8674C12.8674 2.17393 12.2883 1.59248 11.5762 1.59248V1.63248ZM12.8274 2.88836V7.6554H12.8674V2.88836H12.8274ZM12.8474 7.6354H10.305V7.6754H12.8474V7.6354ZM10.325 7.6554V2.88836H10.285V7.6554H10.325ZM7.17252 2.88836C7.17252 2.19589 7.73396 1.63248 8.42371 1.63248V1.59248C7.71173 1.59248 7.13252 2.17393 7.13252 2.88836H7.17252ZM8.42371 1.63248C9.11347 1.63248 9.67491 2.19589 9.67491 2.88836H9.71491C9.71491 2.17393 9.1357 1.59248 8.42371 1.59248V1.63248ZM9.67491 2.88836V7.6554H9.71491V2.88836H9.67491ZM9.69491 7.6354H7.15252V7.6754H9.69491V7.6354ZM7.17252 7.6554V2.88836H7.13252V7.6554H7.17252ZM9.99993 8.28783H15.9491V8.24783H9.99993V8.28783ZM15.9491 8.28783C16.583 8.28783 17.0986 8.80552 17.0986 9.4416H17.1386C17.1386 8.78357 16.6052 8.24783 15.9491 8.24783V8.28783ZM17.0986 9.4416V9.95195H17.1386V9.4416H17.0986ZM17.0986 9.95195C17.0986 10.5882 16.583 11.1057 15.9491 11.1057V11.1457C16.6052 11.1457 17.1386 10.6101 17.1386 9.95195H17.0986ZM15.9491 11.1057L9.99993 11.1059L9.99993 11.1459L15.9491 11.1457L15.9491 11.1057ZM9.99993 11.1059H4.05072V11.1459H9.99993V11.1059ZM4.05072 11.1059C3.41687 11.1059 2.90126 10.5882 2.90126 9.95209H2.86126C2.86126 10.6101 3.39463 11.1459 4.05072 11.1459V11.1059ZM2.90126 9.95209V9.44174H2.86126V9.95209H2.90126ZM2.90126 9.44174C2.90126 8.80552 3.41687 8.28797 4.05072 8.28797V8.24797C3.39464 8.24797 2.86126 8.78357 2.86126 9.44174H2.90126ZM4.05072 8.28797L9.99993 8.28783L9.99993 8.24783L4.05072 8.24797L4.05072 8.28797ZM3.88367 5.11998C3.88367 3.94891 4.83273 2.99646 5.99932 2.99646V2.95646C4.8105 2.95646 3.84367 3.92695 3.84367 5.11998h4.88367ZM5.99932 2.99646H6.54241V2.95646H5.99932V2.99646ZM6.52241 2.97646V7.65529H6.56241V2.97646H6.52241ZM6.54241 7.63529H5.16338V7.67529H6.54241V7.63529ZM5.18336 7.65621C5.18412 7.63962 5.1856 7.62325 5.18696 7.60597C5.18829 7.58891 5.18948 7.57125 5.18948 7.55319H5.14948C5.14948 7.5696 5.1484 7.58597 5.14708 7.60284C5.14577 7.61949 5.1442 7.63693 5.1434 7.65438L5.18336 7.65621ZM5.18948 7.55319C5.18948 6.66762 4.64304 5.90857 3.87119 5.59536L3.85615 5.63243C4.61344 5.93973 5.14948 6.68447 5.14948 7.55319H5.18948ZM3.88367 5.6139L3.88367 5.11998h4.84367L3.84367 5.6139h4.88367ZM1.63013 7.55341C1.63013 6.74815 2.28267 6.09331 3.08479 6.09331V6.05331C2.26044 6.05331 1.59013 6.7262 1.59013 7.55341H1.63013ZM3.08479 6.09331C3.88692 6.09331 4.53945 6.74815 4.53945 7.55341H4.57945C4.57945 6.7262 3.90915 6.05331 3.08479 6.05331V6.09331ZM4.53945 7.55341C4.53945 7.58727 4.53589 7.61916 4.53354 7.65417L4.57345 7.65684C4.57565 7.62407 4.57945 7.58904 4.57945 7.55341H4.53945ZM4.5535 7.63551L4.05083 7.63536L4.05082 7.67536L4.55349 7.67551L4.5535 7.63551ZM4.05083 7.63536C3.26907 7.63536 2.60444 8.13901 2.35643 8.83882L2.39413 8.85218C2.63673 8.16763 3.28674 7.67536 4.05083 7.67536V7.63536ZM2.38498 8.82801C1.9303 8.57582 1.63013 8.0907 1.63013 7.55341H1.59013C1.59013 8.10572 1.89861 8.60398 2.36558 8.86299L2.38498 8.82801ZM16.8391 12.2797h4.16099V12.3197H16.8391V12.2797ZM3.16099 12.2797C3.0179 12.2797 2.90136 12.1627 2.90136 12.019H2.86136C2.86136 12.1846 2.99565 12.3197 3.16099 12.3197V12.2797ZM2.90136 12.019C2.90136 11.8752 3.01802 11.7583 3.16099 11.7583V11.7183C2.99581 11.7183 2.86136 11.8532 2.86136 12.019H2.90136ZM3.16099 11.7583H4.05083V11.7183h4.16099V11.7583ZM4.05083 11.7583L10 11.7582L10 11.7182L4.05083 11.7183L4.05083 11.7583ZM10 11.7582H16.8391V11.7182H10V11.7582ZM16.8391 11.7582C16.9822 11.7582 17.0987 11.8752 17.0987 12.0189H17.1387C17.1387 11.8533 17.0044 11.7182 16.8391 11.7182V11.7582ZM17.0987 12.0189C17.0987 12.1627 16.982 12.2797 16.8391 12.2797V12.3197C17.0043 12.3197 17.1387 12.1846 17.1387 12.0189H17.0987ZM17.6436 8.83886C17.3956 8.13905 16.731 7.6354 15.9492 7.6354V7.6754C16.7133 7.6754 17.3633 8.16768 17.6059 8.85222L17.6436 8.83886ZM15.9492 7.6354H15.4467V7.6754H15.9492V7.6354ZM15.4667 7.65398C15.4642 7.6192 15.4608 7.5871 15.4608 7.5533H15.4208C15.4208 7.589 15.4244 7.62382 15.4268 7.65682L15.4667 7.65398ZM15.4608 7.5533C15.4608 6.74805 16.1133 6.09321 16.9154 6.09321V6.05321C16.0911 6.05321 15.4208 6.72609 15.4208 7.5533H15.4608ZM16.9154 6.09321C17.7175 6.09321 18.3701 6.74805 18.3701 7.5533H18.4101C18.4101 6.72609 17.7398 6.05321 16.9154 6.05321V6.09321ZM18.3701 7.5533C18.3699 8.09074 18.0697 8.57588 17.6151 8.82805L17.6345 8.86303C18.1014 8.60405 18.4099 8.10576 18.4101 7.55331L18.3701 7.5533Z" fill="white" mask="url(#path-1-outside-1_72_1318)"/>
</svg>
