<svg width="12" height="11" viewBox="0 0 12 11" fill="none" xmlns="http://www.w3.org/2000/svg">
<path d="M5.10326 0.816986C5.47008 0.0737406 6.52992 0.0737401 6.89674 0.816986L7.82458 2.697C7.97024 2.99214 8.25181 3.19671 8.57752 3.24404L10.6522 3.54551C11.4725 3.6647 11.8 4.67267 11.2064 5.25121L9.70517 6.71459C9.46948 6.94433 9.36193 7.27533 9.41757 7.59972L9.77197 9.66606C9.91208 10.483 9.05465 11.1059 8.32102 10.7202L6.46534 9.74464C6.17402 9.59149 5.82598 9.59149 5.53466 9.74464L3.67898 10.7202C2.94535 11.1059 2.08792 10.483 2.22803 9.66606L2.58243 7.59972C2.63807 7.27533 2.53052 6.94433 2.29483 6.71459L0.793554 5.25121C0.200037 4.67267 0.527547 3.6647 1.34777 3.54551L3.42248 3.24404C3.74819 3.19671 4.02976 2.99214 4.17542 2.697L5.10326 0.816986Z" fill="#EBEBEC"/>
</svg>
