<svg width="11" height="10" viewBox="0 0 11 10" fill="none" xmlns="http://www.w3.org/2000/svg">
<path d="M4.20735 2.1079C4.75779 0.784481 5.03301 0.122771 5.5 0.122771C5.96699 0.122771 6.24221 0.784481 6.79265 2.1079L6.89088 2.34408C7.05075 2.72844 7.13068 2.92063 7.28995 3.03634C7.44922 3.15206 7.6567 3.16869 8.07165 3.20196L8.32663 3.2224C9.75537 3.33694 10.4697 3.39421 10.614 3.83834C10.7584 4.28248 10.2141 4.74871 9.12553 5.68116L8.93126 5.84757C8.61511 6.11839 8.45704 6.2538 8.3962 6.44103C8.33537 6.62827 8.38366 6.83073 8.48025 7.23565L8.5396 7.48447C8.87217 8.87868 9.03846 9.57578 8.66066 9.85027C8.28286 10.1248 7.67125 9.75119 6.44805 9.00407L6.22976 8.87073C5.8745 8.65374 5.69687 8.54525 5.5 8.54525C5.30313 8.54525 5.1255 8.65374 4.77024 8.87073L4.55195 9.00407C3.32875 9.75119 2.71714 10.1248 2.33934 9.85027C1.96154 9.57578 2.12783 8.87868 2.4604 7.48447L2.51975 7.23565C2.61634 6.83073 2.66463 6.62827 2.6038 6.44103C2.54296 6.2538 2.38489 6.11839 2.06874 5.84757L1.87447 5.68116C0.78592 4.74871 0.241645 4.28248 0.385952 3.83834C0.530259 3.39421 1.24463 3.33694 2.67337 3.2224L2.92835 3.20196C3.3433 3.16869 3.55078 3.15206 3.71005 3.03634C3.86932 2.92063 3.94925 2.72844 4.10912 2.34408L4.20735 2.1079Z" fill="#FFBA00"/>
</svg>
